<?xml version="1.0" encoding="UTF-8"?>
<svg width="94px" height="94px" viewBox="0 0 94 94" version="1.1" xmlns="http://www.w3.org/2000/svg" xmlns:xlink="http://www.w3.org/1999/xlink">
    <!-- Generator: Sketch 40.3 (33839) - http://www.bohemiancoding.com/sketch -->
    <title>icon</title>
    <desc>Created with Sketch.</desc>
    <defs>
        <linearGradient x1="158.889038%" y1="154.436179%" x2="-34.6326095%" y2="-21.1859164%" id="linearGradient-1">
            <stop stop-color="#8E9EAB" offset="0%"></stop>
            <stop stop-color="#EEF2F3" offset="100%"></stop>
        </linearGradient>
    </defs>
    <g id="Page-1" stroke="none" stroke-width="1" fill="none" fill-rule="evenodd">
        <g id="icon" fill="url(#linearGradient-1)">
            <g id="Group" transform="translate(5.000000, 5.000000)">
                <path d="M33.6,57.4191781 C20.4821918,57.4191781 9.78082192,46.7178082 9.78082192,33.6 C9.78082192,20.4821918 20.4821918,9.78082192 33.6,9.78082192 C46.7178082,9.78082192 57.4191781,20.4821918 57.4191781,33.6 C57.4191781,46.7178082 46.7178082,57.4191781 33.6,57.4191781 L33.6,57.4191781 Z M33.6,14.3835616 C23.0136986,14.3835616 14.3835616,23.0136986 14.3835616,33.6 C14.3835616,44.1863014 23.0136986,52.8164384 33.6,52.8164384 C44.1863014,52.8164384 52.8164384,44.1863014 52.8164384,33.6 C52.8164384,23.0136986 44.1863014,14.3835616 33.6,14.3835616 L33.6,14.3835616 Z" id="Shape"></path>
                <path d="M61.9068493,50.7452055 C64.8986301,45.7972603 66.739726,39.9287671 66.739726,33.6 C66.6246575,15.4191781 51.7808219,0.575342466 33.6,0.575342466 C15.4191781,0.575342466 0.575342466,15.4191781 0.575342466,33.6 C0.575342466,51.7808219 15.4191781,66.6246575 33.6,66.6246575 C39.8136986,66.6246575 45.6821918,64.8986301 50.7452055,61.7917808 L69.9616438,81.0082192 C72.9534247,84.1150685 78.2465753,84.1150685 81.0082192,81.0082192 C83.8849315,78.1315068 84.230137,73.4136986 81.0082192,69.9616438 L61.9068493,50.7452055 L61.9068493,50.7452055 Z M33.6,62.0219178 C17.9506849,62.0219178 5.17808219,49.2493151 5.17808219,33.6 C5.17808219,17.9506849 17.9506849,5.17808219 33.6,5.17808219 C49.2493151,5.17808219 62.0219178,17.9506849 62.0219178,33.6 C62.0219178,49.2493151 49.2493151,62.0219178 33.6,62.0219178 L33.6,62.0219178 Z M77.9013699,77.7863014 C76.6356164,79.0520548 74.5643836,79.0520548 73.2986301,77.7863014 L54.5424658,59.1452055 C56.2684932,57.7643836 57.7643836,56.2684932 59.1452055,54.5424658 L77.9013699,73.2986301 C79.0520548,74.4493151 79.2821918,76.5205479 77.9013699,77.7863014 L77.9013699,77.7863014 Z" id="Shape"></path>
                <path d="M21.5178082,41.1945205 C20.2520548,41.1945205 19.2164384,40.1589041 19.2164384,38.8931507 L19.2164384,27.1561644 C19.2164384,25.890411 20.2520548,24.8547945 21.5178082,24.8547945 C22.7835616,24.8547945 23.8191781,25.890411 23.8191781,27.1561644 L23.8191781,39.0082192 C23.8191781,40.1589041 22.7835616,41.1945205 21.5178082,41.1945205 L21.5178082,41.1945205 Z" id="Shape"></path>
                <path d="M29.5726027,41.1945205 C28.3068493,41.1945205 27.2712329,40.1589041 27.2712329,38.8931507 L27.2712329,27.1561644 C27.2712329,25.890411 28.3068493,24.8547945 29.5726027,24.8547945 C30.8383562,24.8547945 31.8739726,25.890411 31.8739726,27.1561644 L31.8739726,39.0082192 C31.8739726,40.1589041 30.8383562,41.1945205 29.5726027,41.1945205 L29.5726027,41.1945205 Z" id="Shape"></path>
                <path d="M37.6273973,41.1945205 C36.3616438,41.1945205 35.3260274,40.1589041 35.3260274,38.8931507 L35.3260274,27.1561644 C35.3260274,25.890411 36.3616438,24.8547945 37.6273973,24.8547945 C38.8931507,24.8547945 39.9287671,25.890411 39.9287671,27.1561644 L39.9287671,39.0082192 C39.9287671,40.1589041 38.8931507,41.1945205 37.6273973,41.1945205 L37.6273973,41.1945205 Z" id="Shape"></path>
                <path d="M45.7972603,41.1945205 C44.5315068,41.1945205 43.4958904,40.1589041 43.4958904,38.8931507 L43.4958904,27.1561644 C43.4958904,25.890411 44.5315068,24.8547945 45.7972603,24.8547945 C47.0630137,24.8547945 48.0986301,25.890411 48.0986301,27.1561644 L48.0986301,39.0082192 C48.0986301,40.1589041 47.0630137,41.1945205 45.7972603,41.1945205 L45.7972603,41.1945205 Z" id="Shape"></path>
            </g>
        </g>
    </g>
</svg>